<svg version="1.1" id="Layer_1" xmlns="http://www.w3.org/2000/svg" xmlns:xlink="http://www.w3.org/1999/xlink" x="0px" y="0px"
	 width="100%" viewBox="0 0 500 500" enable-background="new 0 0 500 500" xml:space="preserve">
<path fill="#010101" opacity="1.000000" stroke="none" 
	d="
M341.000000,501.000000 
	C227.333359,501.000000 114.166718,501.000000 1.000061,501.000000 
	C1.000041,334.333405 1.000041,167.666794 1.000020,1.000150 
	C167.666565,1.000100 334.333130,1.000100 500.999756,1.000050 
	C500.999847,167.666519 500.999847,334.333038 500.999939,500.999786 
	C447.833344,501.000000 394.666656,501.000000 341.000000,501.000000 
M120.615685,357.856628 
	C126.131973,356.630554 131.818649,355.902374 137.132233,354.083984 
	C152.407288,348.856598 167.522629,343.163696 182.721390,337.711334 
	C186.385788,336.396820 190.130234,335.305420 194.169525,334.004547 
	C194.615372,336.183502 194.948639,337.616608 195.198685,339.064087 
	C198.174408,356.290863 200.934402,373.558746 204.225235,390.724945 
	C205.245193,396.045349 207.462997,401.193909 209.649918,406.194855 
	C210.245544,407.556885 212.723877,408.095612 214.338181,409.012207 
	C215.161865,407.505798 216.799362,405.922119 216.664993,404.506683 
	C216.149139,399.072754 215.943436,393.357086 214.031540,388.354340 
	C207.804932,372.061493 207.618256,354.725342 204.410553,337.926300 
	C203.760406,334.521454 204.951370,332.035492 208.420639,330.936829 
	C210.480972,330.284363 212.537781,329.615356 214.618561,329.033875 
	C228.238815,325.227753 241.937057,321.681091 255.469635,317.586365 
	C269.440491,313.358978 283.252167,308.605621 297.669617,303.907684 
	C299.183655,309.819946 300.947784,315.362091 301.991302,321.036774 
	C305.092529,337.900879 307.794525,354.838470 310.909241,371.699951 
	C311.842072,376.749664 313.514923,381.675537 315.042755,386.597961 
	C316.101013,390.007629 318.976624,391.530029 322.066162,390.451355 
	C323.398621,389.986115 324.610809,386.895996 324.516724,385.068390 
	C324.270020,380.278900 323.514465,375.478119 322.535980,370.770294 
	C318.237579,350.089661 313.706360,329.457275 309.444397,308.769318 
	C308.176025,302.612549 310.013672,299.483612 315.673767,296.693848 
	C317.611725,295.738708 319.609222,294.879730 321.638489,294.138184 
	C341.957703,286.712952 362.222504,279.129456 382.655823,272.031525 
	C389.198517,269.758820 396.161438,267.776581 402.996216,267.543793 
	C408.874298,267.343597 411.552124,264.888275 413.726624,260.310455 
	C410.352509,257.039764 406.793549,256.508270 402.563599,257.990204 
	C383.879913,264.535858 365.119293,270.862091 346.441895,277.425232 
	C333.138672,282.099915 319.923584,287.025360 306.783417,291.797363 
	C302.574371,284.211914 286.173126,202.526764 286.486298,191.406235 
	C292.069122,189.654358 297.682404,187.451050 303.497162,186.144180 
	C329.790588,180.234695 356.122070,174.489716 382.484650,168.896729 
	C388.724823,167.572845 392.915985,164.512466 394.974060,158.088837 
	C392.987061,157.881516 391.242218,157.255722 389.722260,157.605942 
	C354.586731,165.702194 319.475586,173.904465 283.963135,182.179550 
	C283.774323,181.491928 283.253571,179.939896 282.925293,178.348145 
	C277.510651,152.094528 272.102631,125.839500 266.740845,99.575050 
	C265.791748,94.925926 262.870422,91.907150 259.704712,93.033318 
	C255.508286,94.526161 257.309387,97.927452 257.870605,100.686600 
	C263.345184,127.601128 268.818420,154.516403 274.474579,181.393066 
	C275.430054,185.933167 273.939423,188.269699 269.738647,189.680557 
	C253.012589,195.298141 236.438385,201.397354 219.586380,206.600693 
	C207.114838,210.451538 194.300491,213.192200 181.436493,216.479156 
	C180.792236,213.984085 180.362946,212.560074 180.059418,211.109756 
	C176.376190,193.511383 172.970001,175.849991 168.959946,158.326675 
	C165.768082,144.378738 161.971985,130.562378 158.095490,116.785721 
	C157.571701,114.924202 154.903290,112.246391 153.417465,112.362938 
	C150.045105,112.627449 149.290100,115.658821 149.975128,118.838409 
	C150.150497,119.652344 150.272369,120.477951 150.453262,121.290527 
	C155.482056,143.877365 160.589096,166.447113 165.514694,189.056412 
	C167.766022,199.390411 169.661331,209.801987 171.666000,219.915482 
	C146.685684,228.571960 122.491127,236.972717 98.279236,245.323181 
	C95.573601,246.256317 92.100250,246.864319 93.143753,250.620560 
	C94.184059,254.365280 97.689651,253.297226 100.357277,252.591019 
	C105.499886,251.229630 110.627472,249.752121 115.646843,247.995682 
	C131.034180,242.611160 146.351212,237.025986 161.732849,231.624908 
	C165.578293,230.274597 169.563843,229.323257 173.623596,228.148453 
	C174.322479,231.825058 174.915802,234.929535 175.502487,238.035263 
	C180.694824,265.522491 185.767029,293.033447 191.192032,320.474670 
	C192.119873,325.167999 190.679977,327.274384 186.478134,328.337769 
	C185.676071,328.540771 184.925293,328.937958 184.132690,329.187958 
	C162.424255,336.035797 141.555237,345.542267 119.024323,349.777283 
	C116.209244,350.306396 113.870865,351.801727 114.649437,354.600647 
	C115.053238,356.052307 117.983978,356.801056 120.615685,357.856628 
M403.222961,352.730957 
	C405.532288,347.230927 407.824860,341.723785 410.156128,336.233093 
	C412.021454,331.839813 411.057861,327.823120 408.778900,323.868439 
	C403.307098,314.373077 394.678162,309.484222 384.327148,307.418518 
	C364.699738,303.501587 350.951538,312.382690 346.583191,331.507294 
	C346.324219,332.641113 345.973053,333.754913 345.639191,334.870361 
	C343.027344,343.597046 344.186432,352.033142 347.947540,360.121307 
	C352.996979,370.979950 367.366669,379.676361 381.471954,372.215149 
	C390.244659,367.574677 397.634003,361.809113 403.222961,352.730957 
M194.717102,188.372162 
	C200.165939,179.117264 205.614777,169.862366 211.419434,160.003113 
	C217.675842,165.547485 223.064499,170.734909 228.903915,175.352249 
	C232.771774,178.410629 237.146164,180.938919 241.588272,183.098923 
	C243.084610,183.826523 245.487198,182.690369 247.475586,182.406052 
	C247.103058,180.470047 247.330963,178.037323 246.228760,176.704926 
	C244.149063,174.190857 241.281647,172.335510 238.781097,170.161026 
	C233.279282,165.376617 227.847717,160.510406 222.301086,155.778870 
	C217.360367,151.564209 217.262146,147.328339 220.340820,141.564209 
	C226.100372,130.780792 230.927628,119.499428 236.101776,108.512207 
	C232.080750,105.473473 230.113525,107.071968 228.430542,110.593224 
	C223.369720,121.181839 218.142441,131.690903 212.200165,143.823380 
	C208.229630,137.841171 205.149384,133.014130 201.865707,128.329697 
	C200.162567,125.900055 199.668030,121.088203 194.843704,123.507782 
	C190.144821,125.864471 193.146103,129.532867 194.417130,132.048950 
	C197.328308,137.811829 200.766022,143.343842 204.394470,148.695312 
	C206.386032,151.632584 206.791412,153.790695 204.889481,157.095200 
	C197.922653,169.199692 191.274094,181.491348 184.701096,193.816742 
	C181.694687,199.454208 182.792542,201.791443 188.885040,204.384048 
	C190.700089,199.265991 192.515381,194.147247 194.717102,188.372162 
M322.196075,127.868652 
	C325.017456,117.953484 327.900208,108.054794 330.572449,98.099564 
	C330.863586,97.014847 329.940643,95.604233 329.580811,94.344803 
	C328.175659,94.827209 326.498932,94.991768 325.448395,95.889229 
	C324.554596,96.652771 324.334198,98.244049 323.898315,99.497787 
	C320.632050,108.892281 317.386230,118.293900 313.861389,128.481262 
	C311.028809,125.761284 308.729980,123.438728 306.305481,121.255707 
	C303.472229,118.704651 300.732178,115.956451 297.546631,113.930717 
	C296.005066,112.950394 293.537933,113.425491 291.489868,113.241638 
	C291.559204,115.450027 291.476837,117.678978 291.772125,119.856728 
	C291.891235,120.735138 292.740448,121.593880 293.421906,122.303619 
	C297.339233,126.383484 301.228485,130.495285 305.274414,134.445526 
	C311.052368,140.086823 311.217010,141.893021 307.100067,149.059540 
	C304.127777,154.233490 301.456573,159.589066 298.843170,164.957169 
	C297.325745,168.074020 296.967957,171.290802 300.358490,174.929047 
	C309.001953,167.512207 310.059692,155.878815 316.566833,147.245834 
	C320.157593,148.684662 323.747467,150.443192 327.526031,151.567780 
	C334.497009,153.642548 341.512573,155.688675 348.641388,157.062683 
	C352.382599,157.783783 355.803711,156.100159 357.587982,151.016495 
	C354.824829,149.914886 352.253174,148.317200 349.501648,147.896835 
	C340.160889,146.469849 332.257141,142.199921 324.695404,136.813416 
	C321.491425,134.531082 320.050720,132.316620 322.196075,127.868652 
z"/>
<path fill="#F3F3F3" opacity="1.000000" stroke="none" 
	d="
M120.194412,357.862000 
	C117.983978,356.801056 115.053238,356.052307 114.649437,354.600647 
	C113.870865,351.801727 116.209244,350.306396 119.024323,349.777283 
	C141.555237,345.542267 162.424255,336.035797 184.132690,329.187958 
	C184.925293,328.937958 185.676071,328.540771 186.478134,328.337769 
	C190.679977,327.274384 192.119873,325.167999 191.192032,320.474670 
	C185.767029,293.033447 180.694824,265.522491 175.502487,238.035263 
	C174.915802,234.929535 174.322479,231.825058 173.623596,228.148453 
	C169.563843,229.323257 165.578293,230.274597 161.732849,231.624908 
	C146.351212,237.025986 131.034180,242.611160 115.646843,247.995682 
	C110.627472,249.752121 105.499886,251.229630 100.357277,252.591019 
	C97.689651,253.297226 94.184059,254.365280 93.143753,250.620560 
	C92.100250,246.864319 95.573601,246.256317 98.279236,245.323181 
	C122.491127,236.972717 146.685684,228.571960 171.666000,219.915482 
	C169.661331,209.801987 167.766022,199.390411 165.514694,189.056412 
	C160.589096,166.447113 155.482056,143.877365 150.453262,121.290527 
	C150.272369,120.477951 150.150497,119.652344 149.975128,118.838409 
	C149.290100,115.658821 150.045105,112.627449 153.417465,112.362938 
	C154.903290,112.246391 157.571701,114.924202 158.095490,116.785721 
	C161.971985,130.562378 165.768082,144.378738 168.959946,158.326675 
	C172.970001,175.849991 176.376190,193.511383 180.059418,211.109756 
	C180.362946,212.560074 180.792236,213.984085 181.436493,216.479156 
	C194.300491,213.192200 207.114838,210.451538 219.586380,206.600693 
	C236.438385,201.397354 253.012589,195.298141 269.738647,189.680557 
	C273.939423,188.269699 275.430054,185.933167 274.474579,181.393066 
	C268.818420,154.516403 263.345184,127.601128 257.870605,100.686600 
	C257.309387,97.927452 255.508286,94.526161 259.704712,93.033318 
	C262.870422,91.907150 265.791748,94.925926 266.740845,99.575050 
	C272.102631,125.839500 277.510651,152.094528 282.925293,178.348145 
	C283.253571,179.939896 283.774323,181.491928 283.963135,182.179550 
	C319.475586,173.904465 354.586731,165.702194 389.722260,157.605942 
	C391.242218,157.255722 392.987061,157.881516 394.974060,158.088837 
	C392.915985,164.512466 388.724823,167.572845 382.484650,168.896729 
	C356.122070,174.489716 329.790588,180.234695 303.497162,186.144180 
	C297.682404,187.451050 292.069122,189.654358 286.486298,191.406235 
	C286.173126,202.526764 302.574371,284.211914 306.783417,291.797363 
	C319.923584,287.025360 333.138672,282.099915 346.441895,277.425232 
	C365.119293,270.862091 383.879913,264.535858 402.563599,257.990204 
	C406.793549,256.508270 410.352509,257.039764 413.726624,260.310455 
	C411.552124,264.888275 408.874298,267.343597 402.996216,267.543793 
	C396.161438,267.776581 389.198517,269.758820 382.655823,272.031525 
	C362.222504,279.129456 341.957703,286.712952 321.638489,294.138184 
	C319.609222,294.879730 317.611725,295.738708 315.673767,296.693848 
	C310.013672,299.483612 308.176025,302.612549 309.444397,308.769318 
	C313.706360,329.457275 318.237579,350.089661 322.535980,370.770294 
	C323.514465,375.478119 324.270020,380.278900 324.516724,385.068390 
	C324.610809,386.895996 323.398621,389.986115 322.066162,390.451355 
	C318.976624,391.530029 316.101013,390.007629 315.042755,386.597961 
	C313.514923,381.675537 311.842072,376.749664 310.909241,371.699951 
	C307.794525,354.838470 305.092529,337.900879 301.991302,321.036774 
	C300.947784,315.362091 299.183655,309.819946 297.669617,303.907684 
	C283.252167,308.605621 269.440491,313.358978 255.469635,317.586365 
	C241.937057,321.681091 228.238815,325.227753 214.618561,329.033875 
	C212.537781,329.615356 210.480972,330.284363 208.420639,330.936829 
	C204.951370,332.035492 203.760406,334.521454 204.410553,337.926300 
	C207.618256,354.725342 207.804932,372.061493 214.031540,388.354340 
	C215.943436,393.357086 216.149139,399.072754 216.664993,404.506683 
	C216.799362,405.922119 215.161865,407.505798 214.338165,409.012207 
	C212.723877,408.095612 210.245544,407.556885 209.649918,406.194855 
	C207.462997,401.193909 205.245193,396.045349 204.225235,390.724945 
	C200.934402,373.558746 198.174408,356.290863 195.198685,339.064087 
	C194.948639,337.616608 194.615372,336.183502 194.169525,334.004547 
	C190.130234,335.305420 186.385788,336.396820 182.721390,337.711334 
	C167.522629,343.163696 152.407288,348.856598 137.132233,354.083984 
	C131.818649,355.902374 126.131973,356.630554 120.194412,357.862000 
M291.816132,271.812256 
	C286.828033,246.259659 282.766418,220.500305 275.261871,195.239609 
	C268.270752,197.977020 261.918518,200.910767 255.295166,202.974426 
	C234.981323,209.303650 214.543564,215.233978 194.194809,221.452927 
	C184.544434,224.402252 181.821320,228.299805 183.806686,238.122803 
	C187.463272,256.214691 191.818619,274.164154 195.705048,292.211273 
	C197.895355,302.382172 199.730896,312.629517 201.771805,323.075531 
	C234.400375,316.781403 266.040710,308.776184 296.199341,294.932373 
	C294.745941,287.315186 293.347565,279.986389 291.816132,271.812256 
z"/>
<path fill="#F2F2F2" opacity="1.000000" stroke="none" 
	d="
M403.043823,353.047791 
	C397.634003,361.809113 390.244659,367.574677 381.471954,372.215149 
	C367.366669,379.676361 352.996979,370.979950 347.947540,360.121307 
	C344.186432,352.033142 343.027344,343.597046 345.639191,334.870361 
	C345.973053,333.754913 346.324219,332.641113 346.583191,331.507294 
	C350.951538,312.382690 364.699738,303.501587 384.327148,307.418518 
	C394.678162,309.484222 403.307098,314.373077 408.778900,323.868439 
	C411.057861,327.823120 412.021454,331.839813 410.156128,336.233093 
	C407.824860,341.723785 405.532288,347.230927 403.043823,353.047791 
M393.755951,355.178070 
	C396.259094,349.422272 399.209747,343.812439 401.147217,337.872131 
	C403.354279,331.105377 400.860199,325.128479 395.130096,321.250641 
	C390.929413,318.407806 386.102173,316.278198 381.285431,314.603943 
	C372.175385,311.437286 363.656708,314.430359 357.950867,322.158386 
	C350.835175,331.795929 350.043365,347.448761 356.153687,357.683899 
	C360.455658,364.889801 368.015991,368.186005 376.239929,366.366455 
	C383.164917,364.834259 388.773560,361.140747 393.755951,355.178070 
z"/>
<path fill="#F1F1F1" opacity="1.000000" stroke="none" 
	d="
M194.523880,188.700348 
	C192.515381,194.147247 190.700089,199.265991 188.885040,204.384048 
	C182.792542,201.791443 181.694687,199.454208 184.701096,193.816742 
	C191.274094,181.491348 197.922653,169.199692 204.889481,157.095200 
	C206.791412,153.790695 206.386032,151.632584 204.394470,148.695312 
	C200.766022,143.343842 197.328308,137.811829 194.417130,132.048950 
	C193.146103,129.532867 190.144821,125.864471 194.843704,123.507782 
	C199.668030,121.088203 200.162567,125.900055 201.865707,128.329697 
	C205.149384,133.014130 208.229630,137.841171 212.200165,143.823380 
	C218.142441,131.690903 223.369720,121.181839 228.430542,110.593224 
	C230.113525,107.071968 232.080750,105.473473 236.101776,108.512207 
	C230.927628,119.499428 226.100372,130.780792 220.340820,141.564209 
	C217.262146,147.328339 217.360367,151.564209 222.301086,155.778870 
	C227.847717,160.510406 233.279282,165.376617 238.781097,170.161026 
	C241.281647,172.335510 244.149063,174.190857 246.228760,176.704926 
	C247.330963,178.037323 247.103058,180.470047 247.475586,182.406036 
	C245.487198,182.690369 243.084610,183.826523 241.588272,183.098923 
	C237.146164,180.938919 232.771774,178.410629 228.903915,175.352249 
	C223.064499,170.734909 217.675842,165.547485 211.419434,160.003113 
	C205.614777,169.862366 200.165939,179.117264 194.523880,188.700348 
z"/>
<path fill="#F3F3F3" opacity="1.000000" stroke="none" 
	d="
M322.111816,128.259125 
	C320.050720,132.316620 321.491425,134.531082 324.695404,136.813416 
	C332.257141,142.199921 340.160889,146.469849 349.501648,147.896835 
	C352.253174,148.317200 354.824829,149.914886 357.587982,151.016495 
	C355.803711,156.100159 352.382599,157.783783 348.641388,157.062683 
	C341.512573,155.688675 334.497009,153.642548 327.526031,151.567780 
	C323.747467,150.443192 320.157593,148.684662 316.566833,147.245834 
	C310.059692,155.878815 309.001953,167.512207 300.358490,174.929047 
	C296.967957,171.290802 297.325745,168.074020 298.843170,164.957169 
	C301.456573,159.589066 304.127777,154.233490 307.100067,149.059540 
	C311.217010,141.893021 311.052368,140.086823 305.274414,134.445526 
	C301.228485,130.495285 297.339233,126.383484 293.421906,122.303619 
	C292.740448,121.593880 291.891235,120.735138 291.772125,119.856728 
	C291.476837,117.678978 291.559204,115.450027 291.489868,113.241638 
	C293.537933,113.425491 296.005066,112.950394 297.546631,113.930717 
	C300.732178,115.956451 303.472229,118.704651 306.305481,121.255707 
	C308.729980,123.438728 311.028809,125.761284 313.861389,128.481262 
	C317.386230,118.293900 320.632050,108.892281 323.898315,99.497787 
	C324.334198,98.244049 324.554596,96.652771 325.448395,95.889229 
	C326.498932,94.991768 328.175659,94.827209 329.580811,94.344795 
	C329.940643,95.604233 330.863586,97.014847 330.572449,98.099564 
	C327.900208,108.054794 325.017456,117.953484 322.111816,128.259125 
z"/>
<path fill="#030303" opacity="1.000000" stroke="none" 
	d="
M291.882629,272.234924 
	C293.347565,279.986389 294.745941,287.315186 296.199341,294.932373 
	C266.040710,308.776184 234.400375,316.781403 201.771805,323.075531 
	C199.730896,312.629517 197.895355,302.382172 195.705048,292.211273 
	C191.818619,274.164154 187.463272,256.214691 183.806686,238.122803 
	C181.821320,228.299805 184.544434,224.402252 194.194809,221.452927 
	C214.543564,215.233978 234.981323,209.303650 255.295166,202.974426 
	C261.918518,200.910767 268.270752,197.977020 275.261871,195.239609 
	C282.766418,220.500305 286.828033,246.259659 291.882629,272.234924 
M222.780029,244.385300 
	C221.509003,245.951492 219.106873,247.548981 219.149200,249.078827 
	C219.439011,259.552063 219.494583,270.127289 221.099152,280.440399 
	C222.562103,289.843445 231.214508,294.361420 239.954575,291.787506 
	C255.647339,287.166077 269.156616,266.109406 266.855194,249.857941 
	C265.545990,240.613007 257.323090,232.030075 247.956848,230.132111 
	C239.150848,228.347672 233.386719,231.385681 227.459335,240.633148 
	C226.545349,242.059082 224.836411,242.975449 222.780029,244.385300 
z"/>
<path fill="#040404" opacity="1.000000" stroke="none" 
	d="
M393.531921,355.460999 
	C388.773560,361.140747 383.164917,364.834259 376.239929,366.366455 
	C368.015991,368.186005 360.455658,364.889801 356.153687,357.683899 
	C350.043365,347.448761 350.835175,331.795929 357.950867,322.158386 
	C363.656708,314.430359 372.175385,311.437286 381.285431,314.603943 
	C386.102173,316.278198 390.929413,318.407806 395.130096,321.250641 
	C400.860199,325.128479 403.354279,331.105377 401.147217,337.872131 
	C399.209747,343.812439 396.259094,349.422272 393.531921,355.460999 
z"/>
<path fill="#F3F3F3" opacity="1.000000" stroke="none" 
	d="
M223.137573,244.256393 
	C224.836411,242.975449 226.545349,242.059082 227.459335,240.633148 
	C233.386719,231.385681 239.150848,228.347672 247.956848,230.132111 
	C257.323090,232.030075 265.545990,240.613007 266.855194,249.857941 
	C269.156616,266.109406 255.647339,287.166077 239.954575,291.787506 
	C231.214508,294.361420 222.562103,289.843445 221.099152,280.440399 
	C219.494583,270.127289 219.439011,259.552063 219.149200,249.078827 
	C219.106873,247.548981 221.509003,245.951492 223.137573,244.256393 
M235.902054,283.947205 
	C239.594406,282.733459 243.852570,282.313171 246.873978,280.158569 
	C256.289520,273.444153 259.858307,263.732513 259.080841,252.341827 
	C258.642059,245.912766 254.466339,240.678467 248.733124,239.225998 
	C243.267136,237.841248 237.916489,240.084869 234.450668,245.868423 
	C229.079178,254.831970 227.276337,264.734344 228.180954,275.052917 
	C228.547119,279.229523 230.636353,282.617767 235.902054,283.947205 
z"/>
<path fill="#040404" opacity="1.000000" stroke="none" 
	d="
M235.503326,283.896362 
	C230.636353,282.617767 228.547119,279.229523 228.180954,275.052917 
	C227.276337,264.734344 229.079178,254.831970 234.450668,245.868423 
	C237.916489,240.084869 243.267136,237.841248 248.733124,239.225998 
	C254.466339,240.678467 258.642059,245.912766 259.080841,252.341827 
	C259.858307,263.732513 256.289520,273.444153 246.873978,280.158569 
	C243.852570,282.313171 239.594406,282.733459 235.503326,283.896362 
z"/>
</svg>